<svg width="53" height="52" viewBox="0 0 53 52" fill="none" xmlns="http://www.w3.org/2000/svg">
<g filter="url(#filter0_di_2760_38)">
<rect y="0.959961" width="48" height="48" rx="7.68" fill="white"/>
<path d="M12.491 12.8104C12.6091 12.7755 12.733 12.7642 12.8554 12.7772C12.9779 12.7901 13.0966 12.8271 13.2048 12.8859C13.313 12.9448 13.4085 13.0244 13.4859 13.1202C13.5634 13.216 13.6211 13.3261 13.656 13.4442L14.3435 15.7729H32.6616C34.9616 15.7729 36.7178 17.919 36.0553 20.1602L33.9866 27.16C33.5466 28.6512 32.1479 29.6474 30.593 29.6474H19.1483C17.5934 29.6474 16.1959 28.6512 15.7547 27.16L11.8585 13.9754C11.7884 13.7372 11.8155 13.4809 11.9341 13.2627C12.0527 13.0446 12.253 12.8811 12.491 12.8104ZM16.8196 34.3348C16.8196 33.5889 17.1159 32.8735 17.6434 32.3461C18.1708 31.8187 18.8862 31.5224 19.6321 31.5224C20.378 31.5224 21.0933 31.8187 21.6207 32.3461C22.1482 32.8735 22.4445 33.5889 22.4445 34.3348C22.4445 35.0807 22.1482 35.796 21.6207 36.3234C21.0933 36.8509 20.378 37.1472 19.6321 37.1472C18.8862 37.1472 18.1708 36.8509 17.6434 36.3234C17.1159 35.796 16.8196 35.0807 16.8196 34.3348ZM26.8193 34.3348C26.8193 33.9654 26.8921 33.5997 27.0334 33.2585C27.1747 32.9173 27.3819 32.6073 27.6431 32.3461C27.9042 32.0849 28.2143 31.8778 28.5555 31.7364C28.8967 31.5951 29.2624 31.5224 29.6317 31.5224C30.0011 31.5224 30.3668 31.5951 30.708 31.7364C31.0492 31.8778 31.3593 32.0849 31.6204 32.3461C31.8816 32.6073 32.0887 32.9173 32.2301 33.2585C32.3714 33.5997 32.4442 33.9654 32.4442 34.3348C32.4442 35.0807 32.1478 35.796 31.6204 36.3234C31.093 36.8509 30.3776 37.1472 29.6317 37.1472C28.8858 37.1472 28.1705 36.8509 27.6431 36.3234C27.1156 35.796 26.8193 35.0807 26.8193 34.3348Z" fill="white"/>
<path d="M12.491 12.8104C12.6091 12.7755 12.733 12.7642 12.8554 12.7772C12.9779 12.7901 13.0966 12.8271 13.2048 12.8859C13.313 12.9448 13.4085 13.0244 13.4859 13.1202C13.5634 13.216 13.6211 13.3261 13.656 13.4442L14.3435 15.7729H32.6616C34.9616 15.7729 36.7178 17.919 36.0553 20.1602L33.9866 27.16C33.5466 28.6512 32.1479 29.6474 30.593 29.6474H19.1483C17.5934 29.6474 16.1959 28.6512 15.7547 27.16L11.8585 13.9754C11.7884 13.7372 11.8155 13.4809 11.9341 13.2627C12.0527 13.0446 12.253 12.8811 12.491 12.8104ZM16.8196 34.3348C16.8196 33.5889 17.1159 32.8735 17.6434 32.3461C18.1708 31.8187 18.8862 31.5224 19.6321 31.5224C20.378 31.5224 21.0933 31.8187 21.6207 32.3461C22.1482 32.8735 22.4445 33.5889 22.4445 34.3348C22.4445 35.0807 22.1482 35.796 21.6207 36.3234C21.0933 36.8509 20.378 37.1472 19.6321 37.1472C18.8862 37.1472 18.1708 36.8509 17.6434 36.3234C17.1159 35.796 16.8196 35.0807 16.8196 34.3348ZM26.8193 34.3348C26.8193 33.9654 26.8921 33.5997 27.0334 33.2585C27.1747 32.9173 27.3819 32.6073 27.6431 32.3461C27.9042 32.0849 28.2143 31.8778 28.5555 31.7364C28.8967 31.5951 29.2624 31.5224 29.6317 31.5224C30.0011 31.5224 30.3668 31.5951 30.708 31.7364C31.0492 31.8778 31.3593 32.0849 31.6204 32.3461C31.8816 32.6073 32.0887 32.9173 32.2301 33.2585C32.3714 33.5997 32.4442 33.9654 32.4442 34.3348C32.4442 35.0807 32.1478 35.796 31.6204 36.3234C31.093 36.8509 30.3776 37.1472 29.6317 37.1472C28.8858 37.1472 28.1705 36.8509 27.6431 36.3234C27.1156 35.796 26.8193 35.0807 26.8193 34.3348Z" fill="url(#paint0_linear_2760_38)"/>
<path d="M24.1977 26.6002C23.1511 26.6002 22.2811 26.2535 21.5878 25.5602C20.9011 24.8603 20.5578 23.9936 20.5578 22.9603C20.5578 21.927 20.9011 21.0637 21.5878 20.3704C22.2811 19.6704 23.1511 19.3204 24.1977 19.3204C24.8243 19.3204 25.4043 19.4671 25.9376 19.7604C26.471 20.0471 26.8909 20.4404 27.1976 20.9404L25.8176 21.7404C25.6643 21.467 25.4443 21.257 25.1577 21.1104C24.871 20.957 24.551 20.8804 24.1977 20.8804C23.5777 20.8804 23.0811 21.0704 22.7077 21.4504C22.3411 21.8303 22.1578 22.3337 22.1578 22.9603C22.1578 23.587 22.3411 24.0903 22.7077 24.4703C23.0811 24.8503 23.5777 25.0402 24.1977 25.0402C24.551 25.0402 24.871 24.9636 25.1577 24.8103C25.451 24.6569 25.671 24.4469 25.8176 24.1803L27.1976 24.9803C26.8976 25.4802 26.481 25.8769 25.9476 26.1702C25.4143 26.4569 24.831 26.6002 24.1977 26.6002Z" fill="white"/>
</g>
<defs>
<filter id="filter0_di_2760_38" x="0" y="-3.91006e-05" width="52.32" height="52.96" filterUnits="userSpaceOnUse" color-interpolation-filters="sRGB">
<feFlood flood-opacity="0" result="BackgroundImageFix"/>
<feColorMatrix in="SourceAlpha" type="matrix" values="0 0 0 0 0 0 0 0 0 0 0 0 0 0 0 0 0 0 127 0" result="hardAlpha"/>
<feOffset dx="2.4" dy="0.96"/>
<feGaussianBlur stdDeviation="0.96"/>
<feComposite in2="hardAlpha" operator="out"/>
<feColorMatrix type="matrix" values="0 0 0 0 0 0 0 0 0 0 0 0 0 0 0 0 0 0 0.06 0"/>
<feBlend mode="normal" in2="BackgroundImageFix" result="effect1_dropShadow_2760_38"/>
<feBlend mode="normal" in="SourceGraphic" in2="effect1_dropShadow_2760_38" result="shape"/>
<feColorMatrix in="SourceAlpha" type="matrix" values="0 0 0 0 0 0 0 0 0 0 0 0 0 0 0 0 0 0 127 0" result="hardAlpha"/>
<feOffset dx="2" dy="4"/>
<feGaussianBlur stdDeviation="2"/>
<feComposite in2="hardAlpha" operator="arithmetic" k2="-1" k3="1"/>
<feColorMatrix type="matrix" values="0 0 0 0 0.223529 0 0 0 0 0.309804 0 0 0 0 0.945098 0 0 0 0.06 0"/>
<feBlend mode="normal" in2="shape" result="effect2_innerShadow_2760_38"/>
</filter>
<linearGradient id="paint0_linear_2760_38" x1="24.0085" y1="8.38443" x2="24.0085" y2="28.1284" gradientUnits="userSpaceOnUse">
<stop stop-color="#534FF2"/>
<stop offset="1" stop-color="#364EF2"/>
</linearGradient>
</defs>
</svg>
