<svg width="18" height="18" viewBox="0 0 18 18" fill="none" xmlns="http://www.w3.org/2000/svg">
<g filter="url(#filter0_di_2760_42)">
<rect y="0.320068" width="16" height="16" rx="2.56" fill="white"/>
<g clip-path="url(#clip0_2760_42)">
<path d="M4.16498 4.27015C4.20435 4.25851 4.24562 4.25474 4.28645 4.25906C4.32727 4.26338 4.36684 4.27569 4.40291 4.29531C4.43897 4.31493 4.47081 4.34146 4.49662 4.37339C4.52242 4.40532 4.54168 4.44202 4.5533 4.48139L4.78246 5.25762H10.8885C11.6552 5.25762 12.2406 5.97301 12.0197 6.72007L11.3302 9.05333C11.1835 9.5504 10.7173 9.88247 10.199 9.88247H6.38408C5.86576 9.88247 5.39994 9.5504 5.25286 9.05333L3.95415 4.65847C3.93075 4.57907 3.93981 4.49364 3.97934 4.42091C4.01886 4.34819 4.08563 4.2937 4.16498 4.27015ZM5.60785 11.4449C5.60785 11.1963 5.70662 10.9578 5.88243 10.782C6.05824 10.6062 6.29669 10.5075 6.54532 10.5075C6.79395 10.5075 7.0324 10.6062 7.20821 10.782C7.38402 10.9578 7.48279 11.1963 7.48279 11.4449C7.48279 11.6936 7.38402 11.932 7.20821 12.1078C7.0324 12.2836 6.79395 12.3824 6.54532 12.3824C6.29669 12.3824 6.05824 12.2836 5.88243 12.1078C5.70662 11.932 5.60785 11.6936 5.60785 11.4449ZM8.94108 11.4449C8.94108 11.3218 8.96533 11.1999 9.01244 11.0862C9.05955 10.9724 9.1286 10.8691 9.21566 10.782C9.30271 10.695 9.40605 10.6259 9.51979 10.5788C9.63353 10.5317 9.75544 10.5075 9.87855 10.5075C10.0017 10.5075 10.1236 10.5317 10.2373 10.5788C10.351 10.6259 10.4544 10.695 10.5414 10.782C10.6285 10.8691 10.6975 10.9724 10.7447 11.0862C10.7918 11.1999 10.816 11.3218 10.816 11.4449C10.816 11.6936 10.7173 11.932 10.5414 12.1078C10.3656 12.2836 10.1272 12.3824 9.87855 12.3824C9.62992 12.3824 9.39147 12.2836 9.21566 12.1078C9.03985 11.932 8.94108 11.6936 8.94108 11.4449Z" fill="white"/>
<path d="M4.16498 4.27015C4.20435 4.25851 4.24562 4.25474 4.28645 4.25906C4.32727 4.26338 4.36684 4.27569 4.40291 4.29531C4.43897 4.31493 4.47081 4.34146 4.49662 4.37339C4.52242 4.40532 4.54168 4.44202 4.5533 4.48139L4.78246 5.25762H10.8885C11.6552 5.25762 12.2406 5.97301 12.0197 6.72007L11.3302 9.05333C11.1835 9.5504 10.7173 9.88247 10.199 9.88247H6.38408C5.86576 9.88247 5.39994 9.5504 5.25286 9.05333L3.95415 4.65847C3.93075 4.57907 3.93981 4.49364 3.97934 4.42091C4.01886 4.34819 4.08563 4.2937 4.16498 4.27015ZM5.60785 11.4449C5.60785 11.1963 5.70662 10.9578 5.88243 10.782C6.05824 10.6062 6.29669 10.5075 6.54532 10.5075C6.79395 10.5075 7.0324 10.6062 7.20821 10.782C7.38402 10.9578 7.48279 11.1963 7.48279 11.4449C7.48279 11.6936 7.38402 11.932 7.20821 12.1078C7.0324 12.2836 6.79395 12.3824 6.54532 12.3824C6.29669 12.3824 6.05824 12.2836 5.88243 12.1078C5.70662 11.932 5.60785 11.6936 5.60785 11.4449ZM8.94108 11.4449C8.94108 11.3218 8.96533 11.1999 9.01244 11.0862C9.05955 10.9724 9.1286 10.8691 9.21566 10.782C9.30271 10.695 9.40605 10.6259 9.51979 10.5788C9.63353 10.5317 9.75544 10.5075 9.87855 10.5075C10.0017 10.5075 10.1236 10.5317 10.2373 10.5788C10.351 10.6259 10.4544 10.695 10.5414 10.782C10.6285 10.8691 10.6975 10.9724 10.7447 11.0862C10.7918 11.1999 10.816 11.3218 10.816 11.4449C10.816 11.6936 10.7173 11.932 10.5414 12.1078C10.3656 12.2836 10.1272 12.3824 9.87855 12.3824C9.62992 12.3824 9.39147 12.2836 9.21566 12.1078C9.03985 11.932 8.94108 11.6936 8.94108 11.4449Z" fill="url(#paint0_linear_2760_42)"/>
<path d="M8.0672 8.86673C7.71832 8.86673 7.42833 8.75118 7.19723 8.52008C6.96834 8.28675 6.8539 7.99787 6.8539 7.65344C6.8539 7.309 6.96834 7.02124 7.19723 6.79013C7.42833 6.55681 7.71832 6.44014 8.0672 6.44014C8.27608 6.44014 8.46941 6.48903 8.64718 6.5868C8.82495 6.68236 8.96495 6.81346 9.06717 6.98013L8.60718 7.24678C8.55607 7.15568 8.48274 7.08568 8.38719 7.03679C8.29164 6.98568 8.18497 6.96013 8.0672 6.96013C7.86054 6.96013 7.69499 7.02346 7.57055 7.15012C7.44833 7.27678 7.38722 7.44456 7.38722 7.65344C7.38722 7.86232 7.44833 8.03009 7.57055 8.15676C7.69499 8.28342 7.86054 8.34675 8.0672 8.34675C8.18497 8.34675 8.29164 8.3212 8.38719 8.27009C8.48496 8.21898 8.55829 8.14898 8.60718 8.06009L9.06717 8.32675C8.96717 8.49341 8.82829 8.62563 8.65051 8.7234C8.47274 8.81896 8.2783 8.86673 8.0672 8.86673Z" fill="white"/>
</g>
</g>
<defs>
<filter id="filter0_di_2760_42" x="0" y="6.83367e-05" width="17.44" height="17.6533" filterUnits="userSpaceOnUse" color-interpolation-filters="sRGB">
<feFlood flood-opacity="0" result="BackgroundImageFix"/>
<feColorMatrix in="SourceAlpha" type="matrix" values="0 0 0 0 0 0 0 0 0 0 0 0 0 0 0 0 0 0 127 0" result="hardAlpha"/>
<feOffset dx="0.8" dy="0.32"/>
<feGaussianBlur stdDeviation="0.32"/>
<feComposite in2="hardAlpha" operator="out"/>
<feColorMatrix type="matrix" values="0 0 0 0 0 0 0 0 0 0 0 0 0 0 0 0 0 0 0.06 0"/>
<feBlend mode="normal" in2="BackgroundImageFix" result="effect1_dropShadow_2760_42"/>
<feBlend mode="normal" in="SourceGraphic" in2="effect1_dropShadow_2760_42" result="shape"/>
<feColorMatrix in="SourceAlpha" type="matrix" values="0 0 0 0 0 0 0 0 0 0 0 0 0 0 0 0 0 0 127 0" result="hardAlpha"/>
<feOffset dx="0.666667" dy="1.33333"/>
<feGaussianBlur stdDeviation="0.666667"/>
<feComposite in2="hardAlpha" operator="arithmetic" k2="-1" k3="1"/>
<feColorMatrix type="matrix" values="0 0 0 0 0.223529 0 0 0 0 0.309804 0 0 0 0 0.945098 0 0 0 0.06 0"/>
<feBlend mode="normal" in2="shape" result="effect2_innerShadow_2760_42"/>
</filter>
<linearGradient id="paint0_linear_2760_42" x1="8.00413" y1="2.79481" x2="8.00412" y2="9.37612" gradientUnits="userSpaceOnUse">
<stop stop-color="#534FF2"/>
<stop offset="1" stop-color="#364EF2"/>
</linearGradient>
<clipPath id="clip0_2760_42">
<rect width="9.99969" height="9.99969" fill="white" transform="translate(3 3.32031)"/>
</clipPath>
</defs>
</svg>
